# Blender 3.4.1
# www.blender.org
mtllib frontLegL.mtl
o frontLegL
v 0.062500 -0.000000 0.062500
v 0.062500 0.000000 -0.062500
v 0.062500 -0.625000 0.062500
v 0.062500 -0.625000 -0.062500
v -0.062500 0.000000 -0.062500
v -0.062500 -0.000000 0.062500
v -0.062500 -0.625000 -0.062500
v -0.062500 -0.625000 0.062500
vn -0.0000 -0.0000 -1.0000
vn 1.0000 -0.0000 -0.0000
vn -0.0000 -0.0000 1.0000
vn -1.0000 -0.0000 -0.0000
vn -0.0000 1.0000 -0.0000
vn -0.0000 -1.0000 -0.0000
vt 0.625000 0.937500
vt 0.750000 0.937500
vt 0.656250 1.000000
vt 0.656250 0.937500
vt 0.625000 0.625000
vt 0.750000 0.625000
vt 0.687500 1.000000
vt 0.656250 0.625000
vt 0.687500 0.937500
vt 0.687500 0.937500
vt 0.718750 0.937500
vt 0.687500 1.000000
vt 0.687500 0.625000
vt 0.718750 0.937500
vt 0.718750 0.625000
vt 0.718750 1.000000
s 0
usemtl m_632fc1d2-4155-acb4-f1c5-8be5cd65f0a5
f 4/8/1 7/13/1 5/10/1 2/4/1
f 3/5/2 4/8/2 2/4/2 1/1/2
f 8/15/3 3/6/3 1/2/3 6/11/3
f 7/13/4 8/15/4 6/11/4 5/10/4
f 6/12/5 1/3/5 2/4/5 5/10/5
f 7/14/6 4/9/6 3/7/6 8/16/6
