# Blender 3.4.1
# www.blender.org
mtllib head.mtl
o head
v 0.156250 0.125000 0.000000
v 0.156250 0.125000 -0.312500
v 0.156250 -0.125000 0.000000
v 0.156250 -0.125000 -0.312500
v -0.156250 0.125000 -0.312500
v -0.156250 0.125000 0.000000
v -0.156250 -0.125000 -0.312500
v -0.156250 -0.125000 0.000000
vn -0.0000 -0.0000 -1.0000
vn 1.0000 -0.0000 -0.0000
vn -0.0000 -0.0000 1.0000
vn -1.0000 -0.0000 -0.0000
vn -0.0000 1.0000 -0.0000
vn -0.0000 -1.0000 -0.0000
vt 0.000000 0.843750
vt 0.312500 0.843750
vt 0.078125 1.000000
vt 0.078125 0.843750
vt 0.000000 0.718750
vt 0.312500 0.718750
vt 0.156250 1.000000
vt 0.078125 0.718750
vt 0.156250 0.843750
vt 0.156250 0.843750
vt 0.234375 0.843750
vt 0.156250 1.000000
vt 0.156250 0.718750
vt 0.234375 0.843750
vt 0.234375 0.718750
vt 0.234375 1.000000
s 0
usemtl m_632fc1d2-4155-acb4-f1c5-8be5cd65f0a5
f 4/8/1 7/13/1 5/10/1 2/4/1
f 3/5/2 4/8/2 2/4/2 1/1/2
f 8/15/3 3/6/3 1/2/3 6/11/3
f 7/13/4 8/15/4 6/11/4 5/10/4
f 6/12/5 1/3/5 2/4/5 5/10/5
f 7/14/6 4/9/6 3/7/6 8/16/6
o headNose
v 0.093750 0.000976 -0.250000
v 0.093750 0.000976 -0.375000
v 0.093750 -0.124024 -0.250000
v 0.093750 -0.124024 -0.375000
v -0.093750 0.000976 -0.375000
v -0.093750 0.000976 -0.250000
v -0.093750 -0.124024 -0.375000
v -0.093750 -0.124024 -0.250000
vn -0.0000 -0.0000 -1.0000
vn 1.0000 -0.0000 -0.0000
vn -0.0000 -0.0000 1.0000
vn -1.0000 -0.0000 -0.0000
vn -0.0000 1.0000 -0.0000
vn -0.0000 -1.0000 -0.0000
vt 0.000000 0.187500
vt 0.156250 0.187500
vt 0.031250 0.250000
vt 0.031250 0.187500
vt 0.000000 0.125000
vt 0.156250 0.125000
vt 0.078125 0.250000
vt 0.031250 0.125000
vt 0.078125 0.187500
vt 0.078125 0.187500
vt 0.109375 0.187500
vt 0.078125 0.250000
vt 0.078125 0.125000
vt 0.125000 0.187500
vt 0.109375 0.125000
vt 0.125000 0.250000
s 0
usemtl m_632fc1d2-4155-acb4-f1c5-8be5cd65f0a5
f 12/24/7 15/29/7 13/26/7 10/20/7
f 11/21/8 12/24/8 10/20/8 9/17/8
f 16/31/9 11/22/9 9/18/9 14/27/9
f 15/29/10 16/31/10 14/27/10 13/26/10
f 14/28/11 9/19/11 10/20/11 13/26/11
f 15/30/12 12/25/12 11/23/12 16/32/12
