# Blender 3.4.1
# www.blender.org
mtllib tail2.mtl
o tail2
v 0.031250 0.031131 -0.002724
v 0.031250 -0.031131 0.002724
v 0.031250 0.074709 0.495374
v 0.031250 0.012447 0.500821
v -0.031250 -0.031131 0.002724
v -0.031250 0.031131 -0.002724
v -0.031250 0.012447 0.500821
v -0.031250 0.074709 0.495374
vn -0.0000 -0.9962 0.0872
vn 1.0000 -0.0000 -0.0000
vn -0.0000 0.9962 -0.0872
vn -1.0000 -0.0000 -0.0000
vn -0.0000 -0.0872 -0.9962
vn -0.0000 0.0872 0.9962
vt 0.062500 0.500000
vt 0.125000 0.500000
vt 0.078125 0.531250
vt 0.078125 0.500000
vt 0.062500 0.250000
vt 0.125000 0.250000
vt 0.093750 0.531250
vt 0.078125 0.250000
vt 0.093750 0.500000
vt 0.093750 0.500000
vt 0.109375 0.500000
vt 0.093750 0.531250
vt 0.093750 0.250000
vt 0.109375 0.500000
vt 0.109375 0.250000
vt 0.109375 0.531250
s 0
usemtl m_632fc1d2-4155-acb4-f1c5-8be5cd65f0a5
f 4/8/1 7/13/1 5/10/1 2/4/1
f 3/5/2 4/8/2 2/4/2 1/1/2
f 8/15/3 3/6/3 1/2/3 6/11/3
f 7/13/4 8/15/4 6/11/4 5/10/4
f 6/12/5 1/3/5 2/4/5 5/10/5
f 7/14/6 4/9/6 3/7/6 8/16/6
