# Blender 3.4.1
# www.blender.org
mtllib tail1.mtl
o tail1
v 0.031250 0.023040 0.021112
v 0.031250 -0.023040 -0.021112
v 0.031250 -0.314755 0.389751
v 0.031250 -0.360835 0.347526
v -0.031250 -0.023040 -0.021112
v -0.031250 0.023040 0.021112
v -0.031250 -0.360835 0.347526
v -0.031250 -0.314755 0.389751
vn -0.0000 -0.7373 -0.6756
vn 1.0000 -0.0000 -0.0000
vn -0.0000 0.7373 0.6756
vn -1.0000 -0.0000 -0.0000
vn -0.0000 0.6756 -0.7373
vn -0.0000 -0.6756 0.7373
vt 0.000000 0.500000
vt 0.062500 0.500000
vt 0.015625 0.531250
vt 0.015625 0.500000
vt 0.000000 0.250000
vt 0.062500 0.250000
vt 0.031250 0.531250
vt 0.015625 0.250000
vt 0.031250 0.500000
vt 0.031250 0.500000
vt 0.046875 0.500000
vt 0.031250 0.531250
vt 0.031250 0.250000
vt 0.046875 0.500000
vt 0.046875 0.250000
vt 0.046875 0.531250
s 0
usemtl m_632fc1d2-4155-acb4-f1c5-8be5cd65f0a5
f 4/8/1 7/13/1 5/10/1 2/4/1
f 3/5/2 4/8/2 2/4/2 1/1/2
f 8/15/3 3/6/3 1/2/3 6/11/3
f 7/13/4 8/15/4 6/11/4 5/10/4
f 6/12/5 1/3/5 2/4/5 5/10/5
f 7/14/6 4/9/6 3/7/6 8/16/6
